# xmcd CD database file
#
# Track frame offsets:
#	187
#	21235
#	48315
#	71017
#	91445
#	113322
#	125017
#	155485
#	180430
#	199637
#
# Disc length: 2905 seconds
#
# Revision: 3
# Processed by: cddbd v1.5.1PL0 Copyright (c) Steve Scherf et al.
# Submitted via: CDex 1.51
#
DISCID=7d0b570a
DTITLE=Elegy - Lost
DYEAR=1995
DGENRE=Metal
TTITLE0=Lost
TTITLE1=Everything
TTITLE2=Clean Up Your Act
TTITLE3=Always With You
TTITLE4=Under Gods Naked Eye
TTITLE5=1998 (The Prophecy)
TTITLE6=Spirits
TTITLE7=Crossed The Line
TTITLE8=Live It Again
TTITLE9=Spanish Inquisition
EXTD=YEAR: 1995
EXTT0=
EXTT1=
EXTT2=
EXTT3=
EXTT4=
EXTT5=
EXTT6=
EXTT7=
EXTT8=
EXTT9=
PLAYORDER=
